<svg width="17" height="20" viewBox="0 0 17 20" fill="none" xmlns="http://www.w3.org/2000/svg">
<path fill-rule="evenodd" clip-rule="evenodd" d="M7.95306 18.8689L8.01554 18.9045L8.04053 18.9187C8.13963 18.9721 8.25052 19 8.36319 19C8.47586 19 8.58675 18.9721 8.68585 18.9187L8.71084 18.9053L8.77422 18.8689C9.12331 18.6627 9.46395 18.4427 9.79531 18.2093C10.6531 17.6061 11.4546 16.9272 12.19 16.1807C13.9252 14.4117 15.7273 11.7537 15.7273 8.33388C15.7273 6.38882 14.9515 4.52341 13.5705 3.14804C12.1896 1.77267 10.3166 1 8.36364 1C6.41068 1 4.53771 1.77267 3.15676 3.14804C1.77581 4.52341 1 6.38882 1 8.33388C1 11.7528 2.80298 14.4117 4.53722 16.1807C5.27238 16.9271 6.07357 17.6061 6.93107 18.2093C7.26272 18.4427 7.60366 18.6628 7.95306 18.8689ZM8.36364 11.0008C9.0738 11.0008 9.75488 10.7198 10.257 10.2196C10.7592 9.71951 11.0413 9.04118 11.0413 8.33388C11.0413 7.62659 10.7592 6.94826 10.257 6.44812C9.75488 5.94799 9.0738 5.66702 8.36364 5.66702C7.65347 5.66702 6.97239 5.94799 6.47023 6.44812C5.96806 6.94826 5.68595 7.62659 5.68595 8.33388C5.68595 9.04118 5.96806 9.71951 6.47023 10.2196C6.97239 10.7198 7.65347 11.0008 8.36364 11.0008Z" stroke="#DFDFDF"/>
</svg>
