<svg width="14" height="14" viewBox="0 0 14 14" fill="none" xmlns="http://www.w3.org/2000/svg">
<circle cx="7" cy="7" r="7" fill="#A4A4A4"/>
<path d="M5.74382 5.13439H7.59226V9.85939H8.44539V10.8H5.75476V9.85939H6.56414V6.07502H5.74382V5.13439ZM6.37273 3.12736C6.37273 3.03257 6.39096 2.94325 6.42742 2.85939C6.46752 2.77189 6.51856 2.69715 6.58054 2.63517C6.64617 2.56955 6.72273 2.51851 6.81023 2.48205C6.89773 2.44195 6.9907 2.42189 7.08914 2.42189C7.18393 2.42189 7.27325 2.44195 7.3571 2.48205C7.4446 2.51851 7.51934 2.56955 7.58132 2.63517C7.64695 2.69715 7.69799 2.77189 7.73445 2.85939C7.77455 2.94325 7.7946 3.03257 7.7946 3.12736C7.7946 3.2258 7.77455 3.31877 7.73445 3.40627C7.69799 3.49377 7.64695 3.57215 7.58132 3.64142C7.51934 3.70705 7.4446 3.75991 7.3571 3.80002C7.27325 3.83648 7.18393 3.85471 7.08914 3.85471C6.9907 3.85471 6.89773 3.83648 6.81023 3.80002C6.72273 3.75991 6.64617 3.70705 6.58054 3.64142C6.51856 3.57215 6.46752 3.49377 6.42742 3.40627C6.39096 3.31877 6.37273 3.2258 6.37273 3.12736Z" fill="white"/>
</svg>
