<svg width="13" height="12" viewBox="0 0 13 12" fill="none" xmlns="http://www.w3.org/2000/svg">
<path fill-rule="evenodd" clip-rule="evenodd" d="M6.44448 8.78975C8.31889 8.78975 9.83842 7.40081 9.83842 5.68748C9.83842 3.97414 8.31889 2.58521 6.44448 2.58521C4.57005 2.58521 3.05054 3.97414 3.05054 5.68748C3.05054 7.40081 4.57005 8.78975 6.44448 8.78975ZM6.44448 7.75566C7.69407 7.75566 8.7071 6.82968 8.7071 5.68748C8.7071 4.54525 7.69407 3.6193 6.44448 3.6193C5.19486 3.6193 4.18185 4.54525 4.18185 5.68748C4.18185 6.82968 5.19486 7.75566 6.44448 7.75566Z" fill="#3E70A9"/>
<path d="M9.83836 2.06812C9.52595 2.06812 9.27271 2.29961 9.27271 2.58516C9.27271 2.87071 9.52595 3.10221 9.83836 3.10221C10.1508 3.10221 10.404 2.87071 10.404 2.58516C10.404 2.29961 10.1508 2.06812 9.83836 2.06812Z" fill="#3E70A9"/>
<path fill-rule="evenodd" clip-rule="evenodd" d="M0.592085 1.69387C0.222168 2.35748 0.222168 3.2262 0.222168 4.96364V6.41136C0.222168 8.14879 0.222168 9.01753 0.592085 9.68111C0.917473 10.2649 1.43668 10.7394 2.07529 11.0369C2.8013 11.375 3.75169 11.375 5.65247 11.375H7.23631C9.13709 11.375 10.0875 11.375 10.8135 11.0369C11.4521 10.7394 11.9713 10.2649 12.2967 9.68111C12.6666 9.01753 12.6666 8.14879 12.6666 6.41136V4.96364C12.6666 3.2262 12.6666 2.35748 12.2967 1.69387C11.9713 1.11014 11.4521 0.635552 10.8135 0.338127C10.0875 0 9.13709 0 7.23631 0H5.65247C3.75169 0 2.8013 0 2.07529 0.338127C1.43668 0.635552 0.917473 1.11014 0.592085 1.69387ZM7.23631 1.03409H5.65247C4.68341 1.03409 4.02465 1.0349 3.51547 1.07292C3.01948 1.10996 2.76584 1.1771 2.5889 1.25951C2.16316 1.45779 1.81702 1.77418 1.60009 2.16334C1.50994 2.32507 1.43649 2.55691 1.39596 3.01028C1.35436 3.47571 1.35348 4.07785 1.35348 4.96364V6.41136C1.35348 7.29717 1.35436 7.89927 1.39596 8.36471C1.43649 8.81811 1.50994 9.04995 1.60009 9.21168C1.81702 9.60081 2.16316 9.91719 2.5889 10.1155C2.76584 10.1979 3.01948 10.2651 3.51547 10.3021C4.02465 10.3401 4.68341 10.3409 5.65247 10.3409H7.23631C8.20539 10.3409 8.8641 10.3401 9.3733 10.3021C9.86933 10.2651 10.123 10.1979 10.2999 10.1155C10.7256 9.91719 11.0717 9.60081 11.2887 9.21168C11.3788 9.04995 11.4523 8.81811 11.4928 8.36471C11.5344 7.89927 11.5353 7.29717 11.5353 6.41136V4.96364C11.5353 4.07785 11.5344 3.47571 11.4928 3.01028C11.4523 2.55691 11.3788 2.32507 11.2887 2.16334C11.0717 1.77418 10.7256 1.45779 10.2999 1.25951C10.123 1.1771 9.86933 1.10996 9.3733 1.07292C8.8641 1.0349 8.20539 1.03409 7.23631 1.03409Z" fill="#3E70A9"/>
</svg>
