<svg width="17" height="13" viewBox="0 0 17 13" fill="none" xmlns="http://www.w3.org/2000/svg">
<path d="M5.45067 9.36152L14.4462 0.416909C14.7257 0.138969 15.0815 0 15.5135 0C15.9454 0 16.3012 0.138969 16.5807 0.416909C16.8602 0.694849 17 1.04859 17 1.47813C17 1.90768 16.8602 2.26142 16.5807 2.53936L6.51794 12.5452C6.213 12.8484 5.85725 13 5.45067 13C5.0441 13 4.68834 12.8484 4.38341 12.5452L0.419282 8.6035C0.13976 8.32556 0 7.97182 0 7.54227C0 7.11273 0.13976 6.75899 0.419282 6.48105C0.698804 6.20311 1.05456 6.06414 1.48655 6.06414C1.91853 6.06414 2.27429 6.20311 2.55381 6.48105L5.45067 9.36152Z" fill="#3E70A9"/>
</svg>
