<svg width="15" height="14" viewBox="0 0 15 14" fill="none" xmlns="http://www.w3.org/2000/svg">
<path fill-rule="evenodd" clip-rule="evenodd" d="M7.91857 10.8182C10.0219 10.8182 11.727 9.10879 11.727 7.00007C11.727 4.89134 10.0219 3.18188 7.91857 3.18188C5.81521 3.18188 4.11011 4.89134 4.11011 7.00007C4.11011 9.10879 5.81521 10.8182 7.91857 10.8182ZM7.91857 9.54552C9.32079 9.54552 10.4576 8.40586 10.4576 7.00007C10.4576 5.59425 9.32079 4.45461 7.91857 4.45461C6.51633 4.45461 5.3796 5.59425 5.3796 7.00007C5.3796 8.40586 6.51633 9.54552 7.91857 9.54552Z" fill="white"/>
<path d="M11.727 2.54541C11.3765 2.54541 11.0923 2.83032 11.0923 3.18177C11.0923 3.53322 11.3765 3.81814 11.727 3.81814C12.0776 3.81814 12.3618 3.53322 12.3618 3.18177C12.3618 2.83032 12.0776 2.54541 11.727 2.54541Z" fill="white"/>
<path fill-rule="evenodd" clip-rule="evenodd" d="M1.35138 2.08477C0.936279 2.90152 0.936279 3.97071 0.936279 6.10909V7.89091C0.936279 10.0293 0.936279 11.0985 1.35138 11.9152C1.71651 12.6337 2.29913 13.2178 3.01574 13.5838C3.83042 14 4.89689 14 7.02983 14H8.80711C10.94 14 12.0065 14 12.8212 13.5838C13.5378 13.2178 14.1204 12.6337 14.4855 11.9152C14.9007 11.0985 14.9007 10.0293 14.9007 7.89091V6.10909C14.9007 3.97071 14.9007 2.90152 14.4855 2.08477C14.1204 1.36632 13.5378 0.782218 12.8212 0.416156C12.0065 0 10.94 0 8.80711 0H7.02983C4.89689 0 3.83042 0 3.01574 0.416156C2.29913 0.782218 1.71651 1.36632 1.35138 2.08477ZM8.80711 1.27273H7.02983C5.94241 1.27273 5.20319 1.27372 4.63181 1.32052C4.07524 1.36611 3.79062 1.44874 3.59208 1.55016C3.11433 1.79421 2.72592 2.18361 2.4825 2.66257C2.38133 2.86163 2.29891 3.14697 2.25344 3.70496C2.20676 4.2778 2.20577 5.0189 2.20577 6.10909V7.89091C2.20577 8.98113 2.20676 9.72217 2.25344 10.295C2.29891 10.8531 2.38133 11.1384 2.4825 11.3375C2.72592 11.8164 3.11433 12.2058 3.59208 12.4498C3.79062 12.5513 4.07524 12.6339 4.63181 12.6795C5.20319 12.7263 5.94241 12.7273 7.02983 12.7273H8.80711C9.89455 12.7273 10.6337 12.7263 11.2051 12.6795C11.7617 12.6339 12.0463 12.5513 12.2449 12.4498C12.7226 12.2058 13.111 11.8164 13.3544 11.3375C13.4556 11.1384 13.5381 10.8531 13.5835 10.295C13.6302 9.72217 13.6312 8.98113 13.6312 7.89091V6.10909C13.6312 5.0189 13.6302 4.2778 13.5835 3.70496C13.5381 3.14697 13.4556 2.86163 13.3544 2.66257C13.111 2.18361 12.7226 1.79421 12.2449 1.55016C12.0463 1.44874 11.7617 1.36611 11.2051 1.32052C10.6337 1.27372 9.89455 1.27273 8.80711 1.27273Z" fill="white"/>
</svg>
