<?xml version="1.0" encoding="UTF-8"?>
<svg width="24px" height="24px" viewBox="0 0 24 24" version="1.1" xmlns="http://www.w3.org/2000/svg" xmlns:xlink="http://www.w3.org/1999/xlink">
    <title>Question Mark Circle Blue</title>
    <g stroke="none" stroke-width="1" fill="none" fill-rule="evenodd">
        <circle fill="#3E70A9" cx="12" cy="12" r="12"></circle>
        <path d="M12,18 C12.8284271,18 13.5,17.3284271 13.5,16.5 C13.5,15.6715729 12.8284271,15 12,15 C11.1715729,15 10.5,15.6715729 10.5,16.5 C10.5,17.3284271 11.1715729,18 12,18 Z" fill="#FFFFFF" fill-rule="nonzero"></path>
        <path d="M12,14 C12.8284271,14 13.5,13.3284271 13.5,12.5 L13.5,12.5 L13.5,12 C13.5,11.1715729 14.1715729,10.5 15,10.5 C15.8284271,10.5 16.5,9.82842712 16.5,9 C16.5,7.06700338 14.4852814,5.5 12,5.5 C9.51471863,5.5 7.5,7.06700338 7.5,9 C7.5,9.82842712 8.17157288,10.5 9,10.5 C9.82842712,10.5 10.5,9.82842712 10.5,9 C10.5,8.44771525 11.1715729,8 12,8 C12.8284271,8 13.5,8.44771525 13.5,9 C13.5,9.55228475 12.8284271,10 12,10 C11.1715729,10 10.5,10.6715729 10.5,11.5 L10.5,11.5 L10.5,12.5 C10.5,13.3284271 11.1715729,14 12,14 Z" fill="#FFFFFF" fill-rule="nonzero"></path>
    </g>
</svg> 